<svg width="12" height="12" viewBox="0 0 12 12" fill="none" xmlns="http://www.w3.org/2000/svg">
<path d="M1.33333 6.58333H4.83333C5.15417 6.58333 5.41667 6.32083 5.41667 6V1.33333C5.41667 1.0125 5.15417 0.75 4.83333 0.75H1.33333C1.0125 0.75 0.75 1.0125 0.75 1.33333V6C0.75 6.32083 1.0125 6.58333 1.33333 6.58333ZM1.33333 11.25H4.83333C5.15417 11.25 5.41667 10.9875 5.41667 10.6667V8.33333C5.41667 8.0125 5.15417 7.75 4.83333 7.75H1.33333C1.0125 7.75 0.75 8.0125 0.75 8.33333V10.6667C0.75 10.9875 1.0125 11.25 1.33333 11.25ZM7.16667 11.25H10.6667C10.9875 11.25 11.25 10.9875 11.25 10.6667V6C11.25 5.67917 10.9875 5.41667 10.6667 5.41667H7.16667C6.84583 5.41667 6.58333 5.67917 6.58333 6V10.6667C6.58333 10.9875 6.84583 11.25 7.16667 11.25ZM6.58333 1.33333V3.66667C6.58333 3.9875 6.84583 4.25 7.16667 4.25H10.6667C10.9875 4.25 11.25 3.9875 11.25 3.66667V1.33333C11.25 1.0125 10.9875 0.75 10.6667 0.75H7.16667C6.84583 0.75 6.58333 1.0125 6.58333 1.33333Z" fill="#595959"/>
</svg>
